<?xml version="1.0" encoding="utf-8"?>
<!-- Generator: Adobe Illustrator 24.3.0, SVG Export Plug-In . SVG Version: 6.00 Build 0)  -->
<svg version="1.1" id="レイヤー_1" xmlns="http://www.w3.org/2000/svg" xmlns:xlink="http://www.w3.org/1999/xlink" x="0px"
	 y="0px" viewBox="0 0 24 24" style="enable-background:new 0 0 24 24;" xml:space="preserve">
<style type="text/css">
	.st0{fill:none;}
	.st1{fill:#00BCD4;}
</style>
<path class="st0" d="M0,0h24v24H0V0z"/>
<path class="st1" d="M15,4v7H5.2l-0.6,0.6L4,12.2V4H15 M16,2H3C2.5,2,2,2.5,2,3v14l4-4h10c0.5,0,1-0.4,1-1V3C17,2.5,16.5,2,16,2z
	 M21,6h-2v9H6v2c0,0.5,0.4,1,1,1h11l4,4V7C22,6.4,21.5,6,21,6z"/>
</svg>
