<svg xmlns="http://www.w3.org/2000/svg" viewBox="0 0 927.39 141.53"><defs><style>.cls-1{fill:#cddc39;}</style></defs><g id="レイヤー_2" data-name="レイヤー 2"><g id="レイヤー_1-2" data-name="レイヤー 1"><polygon class="cls-1" points="153.4 0.53 153.4 141.53 211.2 141.53 161.2 0.53 153.4 0.53"/><polygon class="cls-1" points="449.4 0.53 449.4 141.53 507.2 141.53 457.2 0.53 449.4 0.53"/><polygon class="cls-1" points="867.4 0.53 867.4 141.53 925.2 141.53 875.2 0.53 867.4 0.53"/><polygon points="36.8 141.4 52.6 141.4 52.6 14.8 89 14.8 89 0.2 0 0.2 0 14.8 36.8 14.8 36.8 141.4"/><polygon points="36.8 141.4 52.6 141.4 52.6 14.8 89 14.8 89 0.2 0 0.2 0 14.8 36.8 14.8 36.8 141.4"/><polygon points="36.8 141.4 52.6 141.4 52.6 14.8 89 14.8 89 0.2 0 0.2 0 14.8 36.8 14.8 36.8 141.4"/><polygon points="36.8 141.4 52.6 141.4 52.6 14.8 89 14.8 89 0.2 0 0.2 0 14.8 36.8 14.8 36.8 141.4"/><polygon points="94 141.2 110.8 141.2 153.6 17.6 196.8 141.2 213.6 141.2 163.4 0 144 0 94 141.2"/><path d="M233.6,141.4h15.6V24.4h.6a126.16,126.16,0,0,0,4,12.6l39.8,104.2h16L349.4,37a126.16,126.16,0,0,0,4-12.6h.6v117h15.6V.2H347l-45.2,121h-.4L256.2.2H233.6Z"/><polygon points="233.6 141.4 249.2 141.4 249.2 24.4 293.6 141.2 309.6 141.2 354 24.4 354 141.4 369.6 141.4 369.6 0.2 347 0.2 301.8 121.2 301.4 121.2 256.2 0.2 233.6 0.2 233.6 141.4"/><polygon points="389.6 141.2 406.39 141.2 449.19 17.6 492.39 141.2 509.19 141.2 459 0 439.6 0 389.6 141.2"/><path d="M545.19,83.4V14.6h25.4C589,14.6,604,29.8,604,49.2c0,19.2-15,34.2-33.4,34.2Zm-15.8,57.8h15.8V98.4H569l29.4,42.8h18.4l-31.6-46.4a47.51,47.51,0,0,0,34.6-45.6c0-27.6-21.8-49-49.2-49h-41.4Z"/><rect x="645.79" y="0.4" width="15.8" height="140.8"/><path d="M712.59,126.4V78H753c17.6,0,26.6,11,26.6,24.4a23.86,23.86,0,0,1-24.2,24Zm0-63.2v-48H752a24,24,0,0,1,0,48Zm-15.8,78h59.6c22.4,0,39.4-18,39.4-38,0-15.2-8.6-28.4-23.4-33.6,12.4-5.4,19.8-17.6,19.8-31.2,0-20.4-17.2-38.2-39-38.2h-56.4Z"/><polygon points="807.79 141.2 824.59 141.2 867.39 17.6 910.59 141.2 927.39 141.2 877.19 0 857.79 0 807.79 141.2"/></g></g></svg>