<?xml version="1.0" encoding="utf-8"?>
<!-- Generator: Adobe Illustrator 24.3.0, SVG Export Plug-In . SVG Version: 6.00 Build 0)  -->
<svg version="1.1" id="レイヤー_1" xmlns="http://www.w3.org/2000/svg" xmlns:xlink="http://www.w3.org/1999/xlink" x="0px"
	 y="0px" viewBox="0 0 24 24" style="enable-background:new 0 0 24 24;" xml:space="preserve">
<style type="text/css">
	.st0{fill:none;}
	.st1{fill:#00BCD4;}
</style>
<path class="st0" d="M0,0h24v24H0V0z"/>
<path class="st1" d="M11,23.6V20c-5-0.3-9-4.4-9-9.5C2,5.3,6.3,1,11.5,1S21,5.3,21,10.5c0,4.9-3.4,9.9-8.6,12.4L11,23.6z M11.5,3
	C7.4,3,4,6.4,4,10.5S7.4,18,11.5,18H13v2.3c3.6-2.3,6-6.1,6-9.8C19,6.4,15.6,3,11.5,3z M10.5,14.5h2v2h-2V14.5z M12.5,13h-2
	c0-3.3,3-3,3-5c0-1.1-0.9-2-2-2s-2,0.9-2,2h-2c0-2.2,1.8-4,4-4s4,1.8,4,4C15.5,10.5,12.5,10.8,12.5,13z"/>
</svg>
